# xmcd CD database file
#
# Track frame offsets:
#	150
#	10970
#	29805
#	50885
#	63187
#	82407
#	92962
#	118225
#	130475
#	145587
#
# Disc length: 2469 seconds
#
# Revision: 33
# Processed by: cddbd v1.5.2PL0 Copyright (c) Steve Scherf et al.
# Submitted via: CDex 2.21
#
DISCID=9509a70a,9a09a30a,9b09a40a
DTITLE=Stevie Ray Vaughan And Double Trouble - In Step
DYEAR=1989
DGENRE=Rock
TTITLE0=The House Is Rockin'
TTITLE1=Crossfire
TTITLE2=Tightrope
TTITLE3=Let Me Love You Baby
TTITLE4=Leave My Girl Alone
TTITLE5=Travis Walk
TTITLE6=Wall Of Denial
TTITLE7=Scratch-N-Sniff
TTITLE8=Love Me Darlin'
TTITLE9=Riviera Paradise
EXTD=1989\n\n\n YEAR: 1989
EXTT0=
EXTT1=
EXTT2=
EXTT3=
EXTT4=
EXTT5=
EXTT6=
EXTT7=
EXTT8=
EXTT9=
PLAYORDER=
